<?xml version="1.0" encoding="UTF-8" standalone="no"?>
<svg
   xmlns:dc="http://purl.org/dc/elements/1.1/"
   xmlns:cc="http://creativecommons.org/ns#"
   xmlns:rdf="http://www.w3.org/1999/02/22-rdf-syntax-ns#"
   xmlns:svg="http://www.w3.org/2000/svg"
   xmlns="http://www.w3.org/2000/svg"
   xmlns:sodipodi="http://sodipodi.sourceforge.net/DTD/sodipodi-0.dtd"
   xmlns:inkscape="http://www.inkscape.org/namespaces/inkscape"
   width="227.22908mm"
   height="47.395897mm"
   viewBox="0 0 227.22908 47.395897"
   version="1.1"
   id="svg8"
   inkscape:version="1.0 (4035a4f, 2020-05-01)"
   sodipodi:docname="logoWhite.svg">
  <defs
     id="defs2">
    <clipPath
       id="clipPath48"
       clipPathUnits="userSpaceOnUse">
      <path
         id="path46"
         d="m 1437.12,1445.71 c -6.31,6.32 -13.1,11.84 -20.27,16.58 -21.49,14.23 -46.3,21.34 -71.11,21.36 -24.82,0.02 -49.64,-7.05 -71.16,-21.24 -7.17,-4.73 -13.98,-10.23 -20.29,-16.55 L 617.043,809.672 c -50.531,-50.442 -50.59,-132.293 -0.145,-182.82 25.219,-25.274 58.29,-37.93 91.375,-37.942 33.098,-0.039 66.192,12.559 91.454,37.789 l 545.753,544.851 91.49,91.33 0.11,-0.15 c 23.4,23.32 55.69,37.72 91.33,37.7 35.92,-0.04 68.39,-14.73 91.79,-38.4 0.05,0.06 0.09,0.11 0.13,0.17 z" />
    </clipPath>
    <linearGradient
       id="linearGradient54"
       spreadMethod="pad"
       gradientTransform="matrix(453.371,1107.15,1107.15,-453.371,962.078,666.85)"
       gradientUnits="userSpaceOnUse"
       y2="0"
       x2="1"
       y1="0"
       x1="0">
      <stop
         id="stop50"
         offset="0"
         style="stop-opacity:1;stop-color:#f9a72b" />
      <stop
         id="stop52"
         offset="1"
         style="stop-opacity:1;stop-color:#f68712" />
    </linearGradient>
    <clipPath
       id="clipPath76"
       clipPathUnits="userSpaceOnUse">
      <path
         id="path74"
         d="m 1070.69,1262.48 c 23.44,23.63 55.93,38.27 91.85,38.24 35.64,-0.04 67.9,-14.48 91.28,-37.84 l 0.1,0.15 91.34,-91.49 280.04,-280.509 c 50.44,-50.543 132.29,-50.601 182.83,-0.152 50.54,50.445 50.59,132.291 0.15,182.831 l -371.38,372 c -25.22,25.26 -58.29,37.91 -91.38,37.94 -33.09,0.03 -66.19,-12.58 -91.45,-37.79 l -183.51,-183.21 c 0.04,-0.05 0.09,-0.11 0.13,-0.17 z" />
    </clipPath>
    <linearGradient
       id="linearGradient82"
       spreadMethod="pad"
       gradientTransform="matrix(709.88,-678.677,-678.677,-709.88,891.918,1700.09)"
       gradientUnits="userSpaceOnUse"
       y2="0"
       x2="1"
       y1="0"
       x1="0">
      <stop
         id="stop78"
         offset="0"
         style="stop-opacity:1;stop-color:#f8a335" />
      <stop
         id="stop80"
         offset="1"
         style="stop-opacity:1;stop-color:#f14f2e" />
    </linearGradient>
    <clipPath
       id="clipPath92"
       clipPathUnits="userSpaceOnUse">
      <path
         id="path90"
         d="m 1257.94,1569.91 c 0,-71.11 -57.66,-128.77 -128.78,-128.77 -71.11,0 -128.77,57.66 -128.77,128.77 0,71.13 57.66,128.78 128.77,128.78 71.12,0 128.78,-57.65 128.78,-128.78 z" />
    </clipPath>
    <linearGradient
       id="linearGradient98"
       spreadMethod="pad"
       gradientTransform="matrix(709.88,-678.677,-678.677,-709.88,940.192,1750.58)"
       gradientUnits="userSpaceOnUse"
       y2="0"
       x2="1"
       y1="0"
       x1="0">
      <stop
         id="stop94"
         offset="0"
         style="stop-opacity:1;stop-color:#f8a335" />
      <stop
         id="stop96"
         offset="1"
         style="stop-opacity:1;stop-color:#f14f2e" />
    </linearGradient>
    <clipPath
       id="clipPath108"
       clipPathUnits="userSpaceOnUse">
      <path
         id="path106"
         d="m 5706.98,1309.75 c 0,27.36 22.18,49.54 49.53,49.54 27.36,0 49.53,-22.18 49.53,-49.54 0,-27.35 -22.17,-49.53 -49.53,-49.53 -27.35,0 -49.53,22.18 -49.53,49.53 z" />
    </clipPath>
    <linearGradient
       id="linearGradient114"
       spreadMethod="pad"
       gradientTransform="matrix(-273.05,261.048,261.048,273.05,5829.2,1240.26)"
       gradientUnits="userSpaceOnUse"
       y2="0"
       x2="1"
       y1="0"
       x1="0">
      <stop
         id="stop110"
         offset="0"
         style="stop-opacity:1;stop-color:#f8a335" />
      <stop
         id="stop112"
         offset="1"
         style="stop-opacity:1;stop-color:#f14f2e" />
    </linearGradient>
    <filter
       style="color-interpolation-filters:sRGB"
       inkscape:label="Drop Shadow"
       id="filter293">
      <feFlood
         flood-opacity="0.498039"
         flood-color="rgb(0,0,0)"
         result="flood"
         id="feFlood283" />
      <feComposite
         in="flood"
         in2="SourceGraphic"
         operator="in"
         result="composite1"
         id="feComposite285" />
      <feGaussianBlur
         in="composite1"
         stdDeviation="13.2132"
         result="blur"
         id="feGaussianBlur287" />
      <feOffset
         dx="-35.9281"
         dy="6"
         result="offset"
         id="feOffset289" />
      <feComposite
         in="SourceGraphic"
         in2="offset"
         operator="over"
         result="fbSourceGraphic"
         id="feComposite291" />
      <feColorMatrix
         id="feColorMatrix61"
         values="0 0 0 -1 0 0 0 0 -1 0 0 0 0 -1 0 0 0 0 1 0"
         in="fbSourceGraphic"
         result="fbSourceGraphicAlpha" />
      <feFlood
         in="fbSourceGraphic"
         result="flood"
         flood-color="rgb(0,0,0)"
         flood-opacity="0.498039"
         id="feFlood63" />
      <feComposite
         result="composite1"
         operator="in"
         in="flood"
         id="feComposite65"
         in2="fbSourceGraphic" />
      <feGaussianBlur
         result="blur"
         stdDeviation="13.2"
         in="composite1"
         id="feGaussianBlur67" />
      <feOffset
         result="offset"
         dy="6"
         dx="-35.9281"
         id="feOffset69" />
      <feComposite
         result="composite2"
         operator="over"
         in="fbSourceGraphic"
         id="feComposite71"
         in2="offset" />
    </filter>
    <filter
       id="filter564"
       inkscape:label="Drop Shadow"
       style="color-interpolation-filters:sRGB">
      <feFlood
         id="feFlood554"
         result="flood"
         flood-color="rgb(0,0,0)"
         flood-opacity="0.498039" />
      <feComposite
         id="feComposite556"
         result="composite1"
         operator="in"
         in2="SourceGraphic"
         in="flood" />
      <feGaussianBlur
         id="feGaussianBlur558"
         result="blur"
         stdDeviation="56.4565"
         in="composite1" />
      <feOffset
         id="feOffset560"
         result="offset"
         dy="-47.9042"
         dx="26.6467" />
      <feComposite
         id="feComposite562"
         result="composite2"
         operator="over"
         in2="offset"
         in="SourceGraphic" />
    </filter>
    <filter
       style="color-interpolation-filters:sRGB"
       inkscape:label="Drop Shadow"
       id="filter817">
      <feFlood
         flood-opacity="0.498039"
         flood-color="rgb(0,0,0)"
         result="flood"
         id="feFlood807" />
      <feComposite
         in="flood"
         in2="SourceGraphic"
         operator="in"
         result="composite1"
         id="feComposite809" />
      <feGaussianBlur
         in="composite1"
         stdDeviation="70"
         result="blur"
         id="feGaussianBlur811" />
      <feOffset
         dx="50"
         dy="-50"
         result="offset"
         id="feOffset813" />
      <feComposite
         in="SourceGraphic"
         in2="offset"
         operator="over"
         result="composite2"
         id="feComposite815" />
    </filter>
    <filter
       id="filter158"
       inkscape:label="Drop Shadow"
       style="color-interpolation-filters:sRGB;">
      <feFlood
         id="feFlood148"
         result="flood"
         flood-color="rgb(0,0,0)"
         flood-opacity="0.498039" />
      <feComposite
         id="feComposite150"
         result="composite1"
         operator="in"
         in2="SourceGraphic"
         in="flood" />
      <feGaussianBlur
         id="feGaussianBlur152"
         result="blur"
         stdDeviation="40"
         in="composite1" />
      <feOffset
         id="feOffset154"
         result="offset"
         dy="-50"
         dx="50" />
      <feComposite
         id="feComposite156"
         result="composite2"
         operator="over"
         in2="offset"
         in="SourceGraphic" />
    </filter>
  </defs>
  <sodipodi:namedview
     id="base"
     pagecolor="#ffffff"
     bordercolor="#666666"
     borderopacity="1.0"
     inkscape:pageopacity="0.0"
     inkscape:pageshadow="2"
     inkscape:zoom="1.2347095"
     inkscape:cx="434.9473"
     inkscape:cy="82.772702"
     inkscape:document-units="mm"
     inkscape:current-layer="layer1"
     inkscape:document-rotation="0"
     showgrid="false"
     inkscape:window-width="1440"
     inkscape:window-height="855"
     inkscape:window-x="0"
     inkscape:window-y="23"
     inkscape:window-maximized="0" />
  <metadata
     id="metadata5">
    <rdf:RDF>
      <cc:Work
         rdf:about="">
        <dc:format>image/svg+xml</dc:format>
        <dc:type
           rdf:resource="http://purl.org/dc/dcmitype/StillImage" />
        <dc:title />
      </cc:Work>
    </rdf:RDF>
  </metadata>
  <g
     inkscape:label="Layer 1"
     inkscape:groupmode="layer"
     id="layer1"
     transform="translate(7.7812022,-92.718719)">
    <g
       style="fill:#ffffff;stroke:#ffffff;filter:url(#filter158)"
       id="g38"
       transform="matrix(0.03527778,0,0,-0.03527778,-9.2749666,156.59439)">
      <path
         d="m 3478,675.441 53.03,46.547 c 34.63,-40.047 90.93,-75.769 150.46,-75.769 63.87,0 114.74,28.14 114.74,80.09 0,67.113 -73.6,96.339 -143.96,123.402 -90.92,35.73 -172.11,74.699 -172.11,167.789 0,84.43 77.93,140.71 185.09,140.71 76.86,0 140.72,-31.4 186.19,-84.43 l -49.8,-42.22 c -29.22,28.15 -74.69,59.53 -138.55,59.53 -68.19,0 -111.49,-28.13 -111.49,-72.52 0,-56.277 64.95,-80.097 133.14,-106.07 85.5,-32.48 182.92,-70.359 182.92,-181.852 0,-92 -73.59,-151.546 -192.66,-151.546 -76.85,0 -149.38,41.136 -197,96.339"
         style="fill:#ffffff;fill-opacity:1;fill-rule:nonzero;stroke:#ffffff;"
         id="path40" />
      <g
         style="fill:#ffffff;stroke:#ffffff;"
         id="g42">
        <g
           style="fill:#ffffff;stroke:#ffffff;"
           id="g44"
           clip-path="url(#clipPath48)">
          <path
             d="m 1437.12,1445.71 c -6.31,6.32 -13.1,11.84 -20.27,16.58 -21.49,14.23 -46.3,21.34 -71.11,21.36 -24.82,0.02 -49.64,-7.05 -71.16,-21.24 -7.17,-4.73 -13.98,-10.23 -20.29,-16.55 L 617.043,809.672 c -50.531,-50.442 -50.59,-132.293 -0.145,-182.82 25.219,-25.274 58.29,-37.93 91.375,-37.942 33.098,-0.039 66.192,12.559 91.454,37.789 l 545.753,544.851 91.49,91.33 0.11,-0.15 c 23.4,23.32 55.69,37.72 91.33,37.7 35.92,-0.04 68.39,-14.73 91.79,-38.4 0.05,0.06 0.09,0.11 0.13,0.17 l -183.21,183.51"
             style="fill:#ffffff;fill-opacity:1;fill-rule:nonzero;stroke:#ffffff;"
             id="path56" />
        </g>
      </g>
      <path
         d="m 2282.85,647.301 c -62.78,0 -119.07,34.64 -149.37,86.59 v 271.699 c 20.56,35.71 73.6,84.43 149.37,84.43 108.25,0 162.37,-79.02 162.37,-220.821 0,-136.39 -53.04,-221.898 -162.37,-221.898 z m 5.41,510.909 c -61.69,0 -119.06,-28.15 -154.78,-67.12 v 275.67 l -75.78,-75.65 V 592.102 h 75.78 v 49.777 c 35.72,-30.289 75.76,-62.777 161.28,-62.777 142.88,0 229.47,102.839 229.47,290.097 0,181.851 -93.08,289.011 -235.97,289.011"
         style="fill:#ffffff;fill-opacity:1;fill-rule:nonzero;stroke:#ffffff;"
         id="path58" />
      <path
         d="m 4475.55,730.648 c -33.56,-41.128 -87.68,-85.519 -161.29,-85.519 -84.44,0 -132.05,48.711 -132.05,121.23 0,80.11 67.1,116.911 145.04,116.911 54.13,0 112.57,-21.641 148.3,-45.469 z m -113.67,427.562 c -20.9,0 -41.63,-2.25 -61.71,-6.01 l -117.56,-117.38 c 44.61,27.56 114.73,57.36 171.7,57.36 61.7,0 121.24,-23.81 121.24,-135.297 v -46.555 c -54.13,29.231 -102.84,38.965 -155.88,38.965 -108.25,0 -207.82,-55.191 -207.82,-182.934 0,-124.48 79.01,-187.257 194.84,-187.257 66.02,0 124.47,27.07 168.86,67.117 v -54.117 h 70.35 v 374.515 c 0,156.963 -104.99,191.593 -184.02,191.593"
         style="fill:#ffffff;fill-opacity:1;fill-rule:nonzero;stroke:#ffffff;"
         id="path60" />
      <path
         d="m 3142.92,730.648 c -33.56,-41.128 -87.68,-85.519 -161.29,-85.519 -84.43,0 -132.06,48.711 -132.06,121.23 0,80.11 67.12,116.911 145.05,116.911 54.12,0 112.58,-21.641 148.3,-45.469 z m -113.66,427.562 c -20.9,0 -41.63,-2.25 -61.71,-6.01 l -117.57,-117.38 c 44.62,27.56 114.74,57.36 171.7,57.36 61.71,0 121.24,-23.81 121.24,-135.297 v -46.555 c -54.12,29.231 -102.83,38.965 -155.88,38.965 -108.24,0 -207.81,-55.191 -207.81,-182.934 0,-124.48 79,-187.257 194.83,-187.257 66.03,0 124.47,27.07 168.86,67.117 v -54.117 h 70.35 v 374.515 c 0,156.963 -105,191.593 -184.01,191.593"
         style="fill:#ffffff;fill-opacity:1;fill-rule:nonzero;stroke:#ffffff;"
         id="path62" />
      <path
         d="m 4989.24,1047.81 v 97.4 h -120.01 l -68.3,-68.18 h 113.62 V 660.289 h -114.74 v -68.187 h 359.36 v 68.187 H 4993.56 V 924.41 c 0,102.83 110.41,155.86 211.08,155.86 17.32,0 32.47,-1.08 45.46,-3.24 V 948.219 h 76.85 v 185.091 c -21.65,14.08 -60.61,24.9 -116.9,24.9 -79.02,0 -177.52,-41.13 -220.81,-110.4"
         style="fill:#ffffff;fill-opacity:1;fill-rule:nonzero;stroke:#ffffff;"
         id="path64" />
      <path
         d="m 5794.1,1145.21 h -154.28 l -68.3,-68.18 h 146.8 V 660.289 H 5565.7 v -68.187 h 381.02 v 68.187 H 5794.1 v 484.921"
         style="fill:#ffffff;fill-opacity:1;fill-rule:nonzero;stroke:#ffffff;"
         id="path66" />
      <path
         d="m 1121.01,1259.13 c 35.64,-0.03 67.91,-14.49 91.27,-37.84 l 0.11,0.14 91.34,-91.49 0.12,-0.12 182.99,182.69 -91.47,91.62 c -25.22,25.25 -58.29,37.9 -91.38,37.93 -33.09,0.03 -66.18,-12.58 -91.44,-37.78 l -183.52,-183.22 c 0.04,-0.06 0.08,-0.11 0.13,-0.17 23.45,23.63 55.94,38.28 91.85,38.24"
         style="fill:#ffffff;fill-opacity:1;fill-rule:nonzero;stroke:#ffffff;"
         id="path68" />
      <g
         style="fill:#ffffff;stroke:#ffffff;"
         id="g70">
        <g
           style="fill:#ffffff;stroke:#ffffff;"
           id="g72"
           clip-path="url(#clipPath76)">
          <path
             d="m 1070.69,1262.48 c 23.44,23.63 55.93,38.27 91.85,38.24 35.64,-0.04 67.9,-14.48 91.28,-37.84 l 0.1,0.15 91.34,-91.49 280.04,-280.509 c 50.44,-50.543 132.29,-50.601 182.83,-0.152 50.54,50.445 50.59,132.291 0.15,182.831 l -371.38,372 c -25.22,25.26 -58.29,37.91 -91.38,37.94 -33.09,0.03 -66.19,-12.58 -91.45,-37.79 l -183.51,-183.21 c 0.04,-0.05 0.09,-0.11 0.13,-0.17"
             style="fill:#ffffff;fill-opacity:1;fill-rule:nonzero;stroke:#ffffff;"
             id="path84" />
        </g>
      </g>
      <g
         style="fill:#ffffff;stroke:#ffffff;"
         id="g86">
        <g
           style="fill:#ffffff;stroke:#ffffff;"
           id="g88"
           clip-path="url(#clipPath92)">
          <path
             d="m 1257.94,1569.91 c 0,-71.11 -57.66,-128.77 -128.78,-128.77 -71.11,0 -128.77,57.66 -128.77,128.77 0,71.13 57.66,128.78 128.77,128.78 71.12,0 128.78,-57.65 128.78,-128.78"
             style="fill:#ffffff;fill-opacity:1;fill-rule:nonzero;stroke:#ffffff;"
             id="path100" />
        </g>
      </g>
      <g
         style="fill:#ffffff;stroke:#ffffff;"
         id="g102">
        <g
           style="fill:#ffffff;stroke:#ffffff;"
           id="g104"
           clip-path="url(#clipPath108)">
          <path
             d="m 5706.98,1309.75 c 0,27.36 22.18,49.54 49.53,49.54 27.36,0 49.53,-22.18 49.53,-49.54 0,-27.35 -22.17,-49.53 -49.53,-49.53 -27.35,0 -49.53,22.18 -49.53,49.53"
             style="fill:#ffffff;fill-opacity:1;fill-rule:nonzero;stroke:#ffffff;"
             id="path116" />
        </g>
      </g>
    </g>
  </g>
</svg>
